<svg width="500" height="358" viewBox="0 0 500 358" fill="none" xmlns="http://www.w3.org/2000/svg">
    <path d="M55.5618 189.19C54.8231 191.056 53.9417 191.785 52.9177 191.378L10.7472 174.608L5.42857 188.044C5.24389 188.51 4.94247 188.796 4.52431 188.899C4.10616 189.003 3.52471 188.907 2.77998 188.611L1.66288 188.166C0.918145 187.87 0.429036 187.541 0.195554 187.178C-0.0379308 186.815 -0.062336 186.4 0.122339 185.934L13.1142 153.113C13.3173 152.6 13.6187 152.314 14.0184 152.257C14.4366 152.154 15.018 152.25 15.7628 152.546L16.8799 152.99C17.6246 153.286 18.1137 153.616 18.3472 153.979C18.5992 154.295 18.6236 154.71 18.4204 155.223L13.1849 168.449L55.3554 185.22C56.3794 185.627 56.5221 186.764 55.7834 188.63L55.5618 189.19Z" fill="currentColor" />
    <path d="M66.3936 164.94C65.3246 166.637 64.3242 167.192 63.3926 166.602L22.1043 140.484C21.4267 140.055 21.0333 139.599 20.9239 139.114C20.8146 138.629 20.9737 138.047 21.4013 137.368L28.1363 126.672C31.3435 121.579 34.6593 118.334 38.0838 116.94C41.4927 115.476 45.1451 115.976 49.041 118.44C51.6665 120.101 53.4888 122.144 54.508 124.57C55.4848 126.968 55.704 129.629 55.1657 132.553L55.4198 132.714C56.6183 131.751 58.0855 131.254 59.8214 131.225C61.5839 131.153 63.9661 131.413 66.9679 132.006L82.6084 134.956C83.0697 135.07 83.4062 135.194 83.618 135.328C84.2955 135.756 84.073 136.862 82.9505 138.645L82.5496 139.281C82.1487 139.918 81.7166 140.416 81.2532 140.776C80.7475 141.109 80.3063 141.245 79.9297 141.185L64.4329 138.148C61.4312 137.555 59.0658 137.691 57.3369 138.556C55.5657 139.394 53.8649 141.108 52.2346 143.697L48.6266 149.427L66.9205 161C67.8521 161.589 67.7834 162.733 66.7144 164.43L66.3936 164.94ZM49.0908 137.969C50.0262 136.483 50.5215 134.897 50.5766 133.211C50.6585 131.482 50.3338 129.882 49.6024 128.411C48.8711 126.939 47.8066 125.761 46.4092 124.877C43.9107 123.297 41.5664 122.882 39.3762 123.633C37.186 124.384 35.249 126.097 33.5652 128.771L28.5541 136.729L43.799 146.373L49.0908 137.969Z" fill="currentColor" />
    <path d="M85.31 135.161C83.8324 136.731 82.7839 137.223 82.1647 136.637C81.9826 136.465 81.7792 136.169 81.5545 135.75L57.8764 88.8262C57.4998 88.0561 57.8957 87.0504 59.0641 85.8091L60.559 84.221C61.7961 82.9067 62.7748 82.4522 63.495 82.8572L111.661 103.876C112.019 104.007 112.307 104.176 112.526 104.383C113.145 104.968 112.716 106.046 111.238 107.616L110.826 108.054C109.623 109.332 108.644 109.786 107.89 109.418L95.8885 104.175L80.7336 120.275L86.7555 131.87C87.1664 132.604 86.7705 133.609 85.5678 134.887L85.31 135.161ZM90.3445 101.727L68.651 92.0805C67.8964 91.712 66.634 90.9321 64.8637 89.741L64.7606 89.8505C65.9426 91.5204 66.7411 92.7931 67.1562 93.6686L78.0248 114.815L90.3445 101.727Z" fill="currentColor" />
    <path d="M129.371 93.8213C127.942 94.839 126.894 95.0933 126.225 94.5841L83.5711 64.1942C83.2166 63.9541 82.9668 63.7318 82.8217 63.5273C82.3285 62.8318 82.9595 61.8589 84.7145 60.6085L85.3268 60.1723C86.7553 59.1546 87.8037 58.9003 88.472 59.4095L120.221 81.9585C122.238 83.416 124.155 85.0367 125.973 86.8205L126.156 86.6896C125.05 84.0906 124.16 81.708 123.483 79.5418L112.533 42.2676C112.273 41.4676 112.857 40.5588 114.285 39.541L114.653 39.2793C116.408 38.0289 117.532 37.7515 118.025 38.447C118.17 38.6515 118.312 38.9815 118.451 39.4369L133.021 89.7425C133.281 90.5425 132.697 91.4514 131.269 92.4691L129.371 93.8213Z" fill="currentColor" />
    <path d="M154.663 77.4885C153.936 77.826 153.339 77.9091 152.874 77.7379C152.409 77.5668 152.008 77.1168 151.671 76.3881L131.47 32.6648C131.133 31.936 131.05 31.3384 131.221 30.872C131.392 30.4055 131.841 30.0036 132.568 29.6661L156.355 18.6246C156.855 18.3926 157.27 18.3938 157.599 18.6282C157.973 18.8416 158.329 19.3126 158.665 20.0414L159.17 21.1344C159.507 21.8632 159.636 22.4397 159.556 22.8639C159.521 23.2671 159.254 23.5847 158.754 23.8167L138.92 33.0233L146.116 48.5997L163.906 40.3423C164.406 40.1103 164.82 40.1115 165.149 40.3459C165.524 40.5593 165.88 41.0303 166.216 41.7591L166.721 42.8522C167.058 43.5809 167.186 44.1574 167.106 44.5816C167.072 44.9848 166.805 45.3024 166.305 45.5344L148.515 53.7918L156.217 70.4614L176.12 61.2232C176.619 60.9912 177.034 60.9924 177.363 61.2269C177.737 61.4402 178.093 61.9113 178.43 62.64L178.935 63.733C179.271 64.4618 179.4 65.0383 179.32 65.4625C179.285 65.8657 179.018 66.1833 178.518 66.4153L154.663 77.4885Z" fill="currentColor" />
    <path d="M188.99 63.0506C188.217 63.2635 187.615 63.2473 187.184 63.0017C186.754 62.7561 186.432 62.2462 186.219 61.4718L173.27 14.2873C172.978 13.2226 173.798 12.4241 175.729 11.8916L176.308 11.7319C178.24 11.1994 179.351 11.4655 179.644 12.5302L191.676 56.3755L211.593 50.8844C212.124 50.7379 212.532 50.8075 212.818 51.093C213.153 51.3652 213.426 51.8884 213.639 52.6627L213.957 53.8242C214.17 54.5985 214.202 55.1883 214.054 55.5937C213.953 55.9857 213.638 56.2549 213.107 56.4013L188.99 63.0506Z" fill="currentColor" />
    <path d="M239.913 53.4292C238.419 53.5857 237.615 53.1148 237.5 52.0165L236.353 41.0091L213.642 43.3873C213.244 43.429 212.798 43.0215 212.306 42.1646C211.814 41.3078 211.529 40.5049 211.451 39.7561C211.404 39.3069 211.426 39.0271 211.515 38.9168L232.511 1.97308C232.986 1.21683 233.796 0.778728 234.942 0.658778L236.137 0.533612C237.631 0.377155 238.435 0.848049 238.55 1.94629L241.992 34.9685L246.997 34.4443C247.545 34.387 247.937 34.5226 248.172 34.8512C248.458 35.1745 248.642 35.7356 248.725 36.5343L248.819 37.4329C248.902 38.2316 248.838 38.8187 248.625 39.1942C248.462 39.5645 248.107 39.7783 247.559 39.8357L242.554 40.3599L243.701 51.3672C243.815 52.4655 243.126 53.0928 241.631 53.2493L239.913 53.4292ZM235.791 35.6178L233.855 17.0475C233.59 14.5015 233.514 12.5666 233.628 11.2426L233.314 11.1241L218.683 37.4092L235.791 35.6178Z" fill="currentColor" />
    <path d="M258.23 52.8075C256.231 52.6836 255.265 52.0707 255.333 50.9685L258.345 2.12472C258.394 1.32318 258.605 0.757908 258.976 0.428911C259.348 0.0999111 259.933 -0.0398171 260.733 0.00972629L284.349 1.4728C284.899 1.50687 285.263 1.70543 285.441 2.06849C285.669 2.43464 285.759 3.01849 285.709 3.82003L285.635 5.02234C285.586 5.82388 285.425 6.39225 285.154 6.72744C284.932 7.06572 284.546 7.21784 283.997 7.18378L264.729 5.99009L263.58 24.6259L281.498 25.736C282.048 25.77 282.412 25.9686 282.59 26.3317C282.818 26.6978 282.908 27.2817 282.858 28.0832L282.784 29.2855C282.735 30.087 282.574 30.6554 282.303 30.9906C282.081 31.3289 281.695 31.481 281.146 31.4469L263.228 30.3369L261.93 51.3773C261.862 52.4794 260.829 52.9685 258.83 52.8447L258.23 52.8075Z" fill="currentColor" />
    <path d="M292.854 55.8749C290.909 55.3941 290.069 54.6177 290.333 53.5456L302.026 6.03277C302.218 5.25307 302.526 4.73474 302.95 4.47777C303.375 4.2208 303.976 4.18848 304.754 4.38081L317.005 7.41008C322.84 8.85259 326.957 10.9822 329.359 13.7989C331.821 16.5789 332.5 20.2105 331.397 24.6937C330.653 27.7151 329.294 30.0931 327.32 31.828C325.358 33.514 322.908 34.5625 319.97 34.9735L319.898 35.2659C321.188 36.1018 322.121 37.3405 322.697 38.9821C323.321 40.6357 323.827 42.9836 324.213 46.0258L326.357 61.8322C326.395 62.3069 326.384 62.666 326.324 62.9097C326.132 63.6894 325.015 63.8268 322.973 63.3219L322.244 63.1416C321.515 62.9613 320.906 62.7075 320.42 62.3804C319.945 62.0045 319.676 61.628 319.615 61.2508L317.598 45.5535C317.212 42.5113 316.337 40.3046 314.972 38.9333C313.62 37.5133 311.461 36.4366 308.495 35.7033L301.931 34.0805L296.75 55.1323C296.487 56.2044 295.382 56.5 293.438 56.0192L292.854 55.8749ZM312.925 30.9053C314.627 31.326 316.284 31.2965 317.898 30.8167C319.561 30.3489 320.973 29.5349 322.135 28.3748C323.298 27.2147 324.077 25.8306 324.472 24.2224C325.18 21.3473 324.833 18.9868 323.43 17.1408C322.028 15.2949 319.795 13.9932 316.732 13.2359L307.616 10.982L303.299 28.5252L312.925 30.9053Z" fill="currentColor" />
    <path d="M334.242 68.151C332.385 67.3967 331.664 66.5078 332.078 65.4845L350.705 19.4356C351.119 18.4123 352.254 18.2778 354.111 19.0322L354.667 19.2585C356.524 20.0129 357.245 20.9017 356.831 21.925L338.204 67.9739C337.79 68.9972 336.655 69.1317 334.798 68.3773L334.242 68.151Z" fill="currentColor" />
    <path d="M351.355 75.3643C350.659 74.9661 350.246 74.5273 350.115 74.048C349.985 73.5687 350.118 72.9803 350.515 72.2829L374.354 30.4403C374.751 29.7429 375.189 29.3288 375.667 29.1979C376.145 29.0671 376.732 29.2007 377.428 29.599L400.192 42.6285C400.671 42.9023 400.91 43.2415 400.91 43.6461C400.954 44.0757 400.777 44.6391 400.38 45.3365L399.784 46.3826C399.386 47.08 398.992 47.519 398.601 47.6996C398.253 47.9052 397.84 47.8711 397.362 47.5973L378.38 36.7331L369.888 51.6396L386.912 61.3837C387.391 61.6575 387.63 61.9967 387.63 62.4014C387.674 62.8309 387.497 63.3944 387.1 64.0918L386.504 65.1378C386.106 65.8352 385.712 66.2742 385.321 66.4549C384.973 66.6604 384.56 66.6263 384.082 66.3525L367.057 56.6084L357.969 72.5609L377.015 83.4624C377.494 83.7362 377.733 84.0754 377.733 84.48C377.777 84.9096 377.6 85.4731 377.202 86.1704L376.606 87.2165C376.209 87.9139 375.815 88.3529 375.424 88.5335C375.076 88.7391 374.663 88.705 374.184 88.4312L351.355 75.3643Z" fill="currentColor" />
    <path d="M381.779 93.5939C380.269 92.2756 379.875 91.2 380.598 90.3672L413.151 52.8904C413.874 52.0576 414.991 52.3004 416.502 53.6187L417.691 54.6568C418.296 55.1842 418.702 55.6718 418.91 56.1199C419.157 56.6009 419.231 57.1649 419.134 57.812L413.544 100.25C413.364 101.757 413 103.436 412.454 105.289L412.73 105.429C413.411 104.493 414.491 103.173 415.97 101.469L438.757 75.2356C439.48 74.4028 440.597 74.6456 442.108 75.9639L442.505 76.3099C444.015 77.6282 444.409 78.7038 443.686 79.5366L411.133 117.013C410.41 117.846 409.293 117.603 407.782 116.285L406.649 115.296C405.667 114.439 405.236 113.598 405.357 112.771L411.086 69.2562C411.266 67.7495 411.629 66.07 412.175 64.2178L411.899 64.0768C411.219 65.0134 410.138 66.3334 408.659 68.0369L385.527 94.6681C384.804 95.501 383.687 95.2582 382.176 93.9399L381.779 93.5939Z" fill="currentColor" />
    <path d="M418.477 127.549C418.006 126.9 417.809 126.33 417.886 125.839C417.963 125.348 418.326 124.866 418.974 124.394L457.849 96.0496C458.497 95.5772 459.066 95.3797 459.555 95.4572C460.045 95.5346 460.526 95.8981 460.997 96.5475L469.922 108.846C474.046 114.528 475.645 120.315 474.718 126.204C473.86 132.105 469.726 137.757 462.316 143.16C454.865 148.593 448.207 150.809 442.342 149.81C436.506 148.851 431.527 145.53 427.403 139.848L418.477 127.549ZM431.71 136.056C434.685 140.155 438.422 142.489 442.921 143.057C447.42 143.624 452.545 141.812 458.295 137.619C464.005 133.456 467.283 129.142 468.129 124.677C469.016 120.182 467.972 115.885 464.997 111.786L458.943 103.445L425.656 127.714L431.71 136.056Z" fill="currentColor" />
    <path d="M448.484 175.885C447.201 173.162 446.332 170.493 445.875 167.878C445.419 165.263 445.365 163.151 445.715 161.543C445.943 160.38 446.306 159.681 446.804 159.446C447.347 159.188 448.233 159.13 449.462 159.27C450.712 159.455 451.423 159.729 451.594 160.093C451.68 160.274 451.678 160.858 451.588 161.844C451.481 163.615 451.53 165.423 451.735 167.269C451.962 169.16 452.598 171.218 453.646 173.442C454.886 176.074 456.616 177.865 458.834 178.813C461.12 179.785 463.462 179.703 465.862 178.567C467.538 177.774 468.705 176.667 469.364 175.245C470.069 173.801 470.428 172.271 470.442 170.655C470.522 169.063 470.461 166.816 470.257 163.915C470.059 160.79 470.026 158.252 470.159 156.302C470.293 154.352 470.941 152.435 472.103 150.553C473.311 148.649 475.295 147.044 478.058 145.737C480.503 144.58 482.965 144.164 485.444 144.489C487.945 144.86 490.25 145.934 492.361 147.71C494.538 149.51 496.332 151.908 497.743 154.904C498.47 156.447 499.056 158.279 499.501 160.4C499.992 162.499 500.12 164.242 499.888 165.628C499.772 166.793 499.397 167.526 498.763 167.826C498.265 168.061 497.401 168.109 496.173 167.969C494.965 167.875 494.287 167.669 494.137 167.351C494.03 167.124 493.983 166.73 493.995 166.169C494.029 165.653 494.06 165.306 494.086 165.127C494.194 162.3 493.671 159.662 492.517 157.211C491.277 154.578 489.593 152.767 487.464 151.776C485.358 150.83 483.104 150.925 480.704 152.061C479.165 152.789 478.101 153.764 477.514 154.986C476.948 156.253 476.651 157.504 476.623 158.738C476.662 159.996 476.782 162.132 476.983 165.145C477.224 168.361 477.253 171.067 477.069 173.263C476.931 175.438 476.211 177.555 474.911 179.613C473.677 181.696 471.633 183.412 468.781 184.763C464.705 186.691 460.849 186.851 457.211 185.242C453.574 183.633 450.665 180.514 448.484 175.885Z" fill="currentColor" />
    <path d="M129.165 180.165L113.011 193.071L109.113 200.563C104.089 210.221 100.971 215.505 99.1956 217.41C98.416 218.233 96.9435 220.095 95.9908 221.568C93.7387 224.946 91.8765 226.548 87.9354 228.497C86.1598 229.32 81.8723 232.222 78.4077 234.864C74.8997 237.549 70.5689 240.753 68.7499 242.009L65.4585 244.348L61.5175 244.088C59.3521 243.958 52.7259 243.698 46.7927 243.568C36.1822 243.309 36.009 243.309 36.6153 244.131C37.698 245.691 48.0053 257.254 48.3085 257.254C48.4384 257.254 54.848 255.478 62.5136 253.356C70.1791 251.191 76.7186 249.458 77.0651 249.458C77.3683 249.458 83.3881 253.053 90.404 257.47L103.137 265.482L143.586 264.27L184.036 263.014L188.8 268.038C191.399 270.809 194.82 274.361 196.379 276.006L199.194 278.908L214.785 280.727L230.376 282.502L250.514 277.652C268.4 273.321 272.125 272.585 284.035 270.853C291.397 269.813 297.893 268.947 298.5 268.947C299.063 268.947 302.83 270.679 306.815 272.845C313.744 276.526 314.61 276.872 323.142 279.211L332.15 281.68L341.635 287.483L351.119 293.243L361.166 295.798C371.387 298.353 373.726 298.786 388.451 300.779C407.983 303.377 416.384 303.81 421.884 302.424C424.137 301.861 426.692 301.688 432.841 301.688C441.85 301.688 447.869 302.511 457.224 305.109C460.126 305.889 462.551 306.495 462.594 306.452C462.681 306.409 447.739 294.845 429.463 280.77L396.246 255.175L388.451 247.033C377.45 235.556 375.155 233.001 371.084 227.501C366.363 221.135 362.076 216.328 359.131 214.032C356.316 211.867 354.8 211.391 341.028 208.316L331.414 206.15L325.264 209.485C312.575 216.371 306.035 220.615 303.827 223.43C301.488 226.418 285.767 240.797 276.932 248.116C267.534 255.911 262.294 259.766 258.656 261.628C256.317 262.797 255.841 262.884 250.861 262.884C239.254 262.884 218.769 262.278 219.549 261.974C220.025 261.801 223.23 261.238 226.695 260.718C241.29 258.51 254.888 255.651 260.475 253.616C266.322 251.494 266.495 251.364 273.034 243.785L274.723 241.793L269.44 235.34C264.503 229.363 263.896 228.8 260.692 227.025C253.676 223.127 252.81 222.434 245.274 214.292L243.801 212.733L234.1 216.371L224.443 220.052L216.647 226.332C209.718 231.962 197.029 240.58 181.178 250.411C179.402 251.494 178.19 251.754 171.044 252.706C166.54 253.313 162.599 253.789 162.209 253.789C161.819 253.789 164.028 252.75 167.103 251.537C170.178 250.325 176.068 247.466 180.138 245.128C187.414 241.057 187.847 240.71 196.292 233.001C201.1 228.627 204.911 224.946 204.824 224.773C204.737 224.643 200.06 221.525 194.43 217.843L184.209 211.131L182.001 207.449C178.926 202.296 176.674 199.048 173.815 195.54C172.473 193.851 168.532 188.654 165.111 183.89L158.917 175.315L152.118 171.287L145.319 167.216L129.165 180.165Z" fill="currentColor" />
    <path d="M226.088 167.649C224.703 167.866 223.447 168.082 223.36 168.169C223.273 168.256 224.356 169.079 225.699 169.988C227.084 170.897 229.77 172.846 231.675 174.362C234.837 176.831 235.226 177.307 235.919 179.472C236.656 181.724 236.872 181.984 239.514 183.457L242.372 185.059L241.116 186.055C240.467 186.618 239.774 187.051 239.601 187.095C239.297 187.095 238.301 190.17 238.518 190.386C238.604 190.516 247.353 190.083 260.605 189.39L265.759 189.13L268.227 191.599L270.739 194.111L273.294 193.807C277.279 193.374 285.594 191.815 285.594 191.469C285.594 191.122 282.043 188.827 276.283 185.449L271.519 182.677L262.511 183.457C249.951 184.54 250.731 184.843 242.935 175.965L237.002 169.122L233.451 168.169C229.51 167.13 229.596 167.13 226.088 167.649Z" fill="currentColor" />
    <path d="M200.363 194.587C199.8 196.882 199.237 199.178 199.107 199.654C198.891 200.434 199.107 200.52 200.796 200.52H202.702L202.139 196.059C201.836 193.634 201.533 191.339 201.489 190.992C201.403 190.646 200.883 192.292 200.363 194.587Z" fill="currentColor" />
    <path d="M187.804 192.205C187.891 192.378 188.8 194.544 189.839 196.969C191.702 201.3 191.788 201.386 193.218 201.386C193.997 201.386 194.647 201.256 194.647 201.127C194.647 200.737 188.15 191.859 187.891 191.859C187.761 191.859 187.717 192.032 187.804 192.205Z" fill="currentColor" />
    <path d="M210.368 198.788L208.549 201.819H210.454H212.403V198.788C212.403 197.099 212.36 195.756 212.273 195.756C212.23 195.756 211.364 197.099 210.368 198.788Z" fill="currentColor" />
    <path d="M220.458 201.56L217.037 202.512L218.423 203.682C219.202 204.331 219.982 204.851 220.155 204.851C220.328 204.851 221.411 203.855 222.58 202.686C223.75 201.473 224.529 200.564 224.313 200.564C224.053 200.607 222.364 201.04 220.458 201.56Z" fill="currentColor" />
    <path d="M197.462 204.634C196.292 204.938 194.777 205.327 194.17 205.457C193.174 205.674 192.914 206.107 192.351 208.316C192.005 209.745 191.832 211.001 192.005 211.087C192.135 211.174 196.812 213.816 202.356 216.934L212.446 222.651L217.513 219.749C220.285 218.19 222.624 216.847 222.71 216.761C223.057 216.414 218.943 210.178 216.777 207.796L214.179 204.981L208.852 204.505C202.399 203.855 200.277 203.898 197.462 204.634Z" fill="currentColor" />
    <path d="M221.931 208.489C221.931 208.576 222.71 209.139 223.663 209.788L225.395 210.914L227.691 209.615L229.943 208.316H225.958C223.75 208.316 221.931 208.402 221.931 208.489Z" fill="currentColor" />
    <path d="M69.9193 254.092C67.8838 254.222 65.805 254.742 62.4703 256.085C59.8718 257.081 57.793 258.033 57.793 258.163C57.793 258.293 60.0883 258.64 62.86 258.943C67.0176 259.376 68.3169 259.679 70.3524 260.762C74.2068 262.797 89.841 275.054 91.66 277.435C92.5261 278.605 94.3451 280.597 95.6443 281.896L98.0263 284.235L105.519 284.625C109.633 284.798 113.444 285.014 113.964 285.101C114.657 285.144 100.538 290.861 91.0536 294.326C90.3174 294.585 90.2741 294.066 90.2741 287.829C90.2741 282.762 90.1442 280.987 89.7544 280.9C89.4512 280.77 87.0693 280.554 84.4275 280.337L79.7069 279.991L78.8841 275.227C78.451 272.628 78.0612 270.463 78.0179 270.376C77.9746 270.333 75.7659 269.943 73.1241 269.467L68.3169 268.687L63.1199 264.919C60.2182 262.841 57.7497 261.152 57.6198 261.152C57.4898 261.152 58.919 263.36 60.8246 266.089C62.9034 269.077 65.1987 273.105 66.7145 276.353L69.1397 281.723L75.8958 288.566C82.2188 294.889 83.0416 295.582 87.2858 297.877L91.9198 300.345L99.1956 299.956C109.849 299.393 117.905 300.345 127.303 303.204C134.189 305.283 134.318 305.326 147.224 306.452L160.217 307.578L168.835 310.393C176.154 312.818 177.757 313.511 179.662 315.027C180.875 316.023 182.954 317.712 184.253 318.795L186.635 320.744L197.678 321.48C206.383 322.086 211.104 322.649 219.982 324.208L231.242 326.157L241.42 330.964C251.25 335.642 251.857 335.988 259.912 342.051L268.271 348.288L279.574 351.925L290.877 355.52L301.358 356.213C307.075 356.559 312.445 356.949 313.268 357.079C317.165 357.599 313.008 356.516 300.492 353.788C292.956 352.142 286.677 350.713 286.547 350.583C286.417 350.496 288.452 348.114 291.007 345.386C293.563 342.614 295.598 340.319 295.511 340.232C295.425 340.146 288.929 339.279 281.046 338.283C273.208 337.287 266.019 336.378 265.152 336.248L263.55 335.988L266.538 329.968C268.227 326.677 269.57 323.775 269.57 323.559C269.57 323.385 265.282 324.944 259.999 327.067C254.715 329.189 250.341 330.878 250.254 330.748C250.168 330.661 251.943 327.889 254.239 324.555L258.353 318.535L240.034 318.318L221.714 318.102L232.888 314.247C243.195 310.696 245.794 309.657 242.849 310.263C240.553 310.739 212.75 314.031 212.576 313.858C212.446 313.771 215.998 311.389 220.458 308.531C224.876 305.716 228.34 303.377 228.167 303.29C227.951 303.247 221.541 304.72 213.919 306.582C206.297 308.444 199.974 309.917 199.887 309.83C199.8 309.743 201.143 307.405 202.875 304.633L205.993 299.566L203.655 301.255C202.399 302.164 198.934 304.72 195.946 306.928L190.532 310.956L189.666 309.873C187.198 306.885 177.973 296.664 177.757 296.664C177.627 296.664 176.847 298.7 176.024 301.212C175.201 303.723 174.465 305.759 174.335 305.716C174.162 305.716 171.65 301.991 168.705 297.487C165.76 292.983 163.205 289.302 163.032 289.302C162.815 289.302 159.567 291.727 155.756 294.715C151.902 297.704 148.697 300.129 148.61 300.129C148.48 300.129 148.264 297.487 148.09 294.282C147.917 291.078 147.701 288.436 147.571 288.436C147.354 288.436 142.201 292.074 133.409 298.397C130.507 300.519 130.464 300.779 134.925 293.33C136.614 290.558 137.913 288.306 137.826 288.262C137.74 288.219 130.118 289.085 120.806 290.168C111.538 291.294 103.873 292.16 103.786 292.074C103.7 292.03 106.688 290.428 110.369 288.479L117.082 284.971H122.106C125.18 284.971 131.72 285.534 139.256 286.487C145.968 287.31 152.638 288.003 154.11 288.003C155.756 287.959 159.481 287.266 164.114 286.097L171.477 284.192L180.572 290.644L189.666 297.097L204.261 296.838L218.813 296.534L223.75 298.743C230.636 301.861 233.754 302.554 244.841 303.594C250.211 304.07 254.628 304.503 254.672 304.59C255.451 305.629 263.203 315.547 263.29 315.633C263.333 315.677 265.889 316.023 268.963 316.369C278.578 317.452 278.231 317.366 278.231 318.492C278.231 320.094 280.31 327.846 281.046 328.972C281.48 329.665 282.389 330.098 284.165 330.445C293.866 332.393 297.374 333.823 299.106 336.638C300.492 338.803 301.618 342.831 301.618 345.473C301.618 347.118 301.748 347.335 302.614 347.335C303.134 347.291 314.177 346.339 327.17 345.213L350.773 343.091L354.93 340.319C362.812 335.035 364.588 334.342 371.734 333.39C375.198 332.956 388.191 330.921 400.577 328.886L423.097 325.161L426.562 322.519C438.991 312.991 443.928 309.007 443.495 308.877C442.932 308.747 429.03 310.436 420.629 311.649C415.432 312.385 412.313 312.212 393.215 310.306C387.498 309.7 379.313 308.92 375.025 308.574C365.237 307.708 360.257 306.928 356.403 305.629C344.839 301.645 340.898 299.826 320.89 289.042C307.551 281.853 299.799 277.912 298.37 277.609C291.7 276.223 288.149 275.963 279.228 276.353C268.747 276.829 266.885 277.132 243.585 282.806L227.344 286.79L217.297 286.747L207.249 286.66L199.324 283.109C193.131 280.294 190.229 278.691 186.115 275.79C183.213 273.711 180.485 271.849 180.052 271.632C179.619 271.372 174.985 270.03 169.745 268.601L160.217 266.002L153.504 266.608C141.941 267.605 138.996 268.038 133.496 269.64C125.57 271.892 122.365 272.412 115.653 272.412H109.59L101.794 269.337C94.0852 266.305 93.9553 266.219 90.4473 262.971C87.9788 260.632 85.337 258.726 81.7424 256.691C76.1556 253.573 76.9785 253.746 69.9193 254.092Z" fill="currentColor" />
</svg>