<svg width="18" height="13" viewBox="0 0 18 13" fill="none" xmlns="http://www.w3.org/2000/svg">
<path d="M9.0494 0C10.9102 0.0519448 12.7799 0.0952324 14.6407 0.155835C15.0235 0.164492 15.4064 0.164492 15.7714 0.242409C16.5994 0.415559 17.187 0.900377 17.5342 1.64492C17.7835 2.17303 17.9082 2.7271 17.9349 3.30715C18.0506 5.2724 17.9972 7.23765 17.8904 9.20289C17.8548 9.78294 17.7924 10.363 17.6144 10.9257C17.276 12.0339 16.5015 12.6399 15.3618 12.8044C14.8543 12.8823 14.338 12.891 13.8216 12.9083C11.017 13.0122 8.21249 13.0295 5.40795 12.9516C4.51762 12.9256 3.62729 12.9169 2.74586 12.8217C1.33024 12.6659 0.591264 12.0252 0.270745 10.6573C0.119389 10.0254 0.0659689 9.35873 0.0481623 8.70942C0.00364585 7.51469 -0.0141602 6.3113 0.0125497 5.11657C0.0303563 4.26813 0.119389 3.4197 0.235132 2.57127C0.279649 2.20766 0.431006 1.84404 0.609072 1.51506C1.05424 0.640653 1.80211 0.199122 2.79928 0.164492C3.87658 0.129862 4.95388 0.0692603 6.04008 0.0519454C7.03725 0.0346304 8.04332 0.0519454 9.04049 0.0519454C9.0494 0.0432879 9.0494 0.0259724 9.0494 0ZM6.91261 6.31995C6.91261 7.11644 6.91261 7.90427 6.91261 8.70076C6.91261 8.77868 6.91261 8.85659 6.93932 8.92585C7.01945 9.16826 7.153 9.22886 7.36667 9.11632C8.31042 8.6315 9.26308 8.13802 10.2068 7.65321C10.839 7.32422 11.4711 6.99524 12.1032 6.66625C12.2635 6.57968 12.4059 6.46713 12.4059 6.27667C12.4059 6.0862 12.2457 6.0256 12.1032 5.95634C10.5986 5.17717 9.08501 4.38934 7.58035 3.61017C7.51803 3.57554 7.44681 3.54091 7.38448 3.51493C7.1708 3.44567 7.00164 3.52359 6.93932 3.73137C6.91261 3.80063 6.91261 3.8872 6.91261 3.96512C6.91261 4.74429 6.91261 5.53212 6.91261 6.31995Z" fill="currentColor"/>
</svg>
