<svg width="17" height="17" viewBox="0 0 17 17" fill="none" xmlns="http://www.w3.org/2000/svg">
<path d="M0 8.20329C0.0335302 7.0037 0.0478991 5.80888 0.100589 4.60929C0.1437 3.62954 0.373621 2.69759 0.962794 1.8899C1.66693 0.924488 2.61535 0.33186 3.78891 0.169366C4.63674 0.0498846 5.50374 0.00209211 6.36115 0.00209211C8.19094 -0.0074664 10.0207 0.0164297 11.8457 0.059443C12.8325 0.0833392 13.7713 0.327081 14.5904 0.914929C15.6298 1.66049 16.2142 2.68803 16.3627 3.9402C16.4585 4.71921 16.4968 5.50779 16.4968 6.29637C16.5016 8.12682 16.4825 9.95727 16.4394 11.7877C16.4154 12.7723 16.1663 13.709 15.5772 14.5262C14.8251 15.5586 13.7953 16.1416 12.5403 16.2898C11.7547 16.3854 10.9548 16.4188 10.1644 16.4236C8.34901 16.4284 6.5288 16.4093 4.71338 16.3662C3.80328 16.3471 2.92191 16.1368 2.14114 15.635C0.986743 14.8942 0.320929 13.8237 0.177229 12.4807C0.062268 11.3863 0.0670603 10.2823 0.0239501 9.17825C0.00958005 8.85804 0.0239501 8.53306 0.0239501 8.21285C0.0143701 8.20329 0.00479002 8.20329 0 8.20329ZM15.0119 8.21285C15.0215 8.21285 15.0359 8.21285 15.0455 8.21285C15.0455 7.63934 15.0646 7.06583 15.0407 6.49709C15.0024 5.65117 14.9832 4.80046 14.8539 3.96887C14.6671 2.75016 13.9246 1.95681 12.7175 1.67483C12.1762 1.55057 11.6062 1.498 11.0506 1.48366C9.52736 1.45021 8.00413 1.43587 6.4809 1.45498C5.6666 1.46454 4.84271 1.52189 4.03799 1.63182C2.85006 1.79909 1.9687 2.63068 1.7292 3.78248C1.61424 4.33209 1.55676 4.9056 1.54239 5.46478C1.50886 6.9798 1.49449 8.49482 1.51365 10.0098C1.52323 10.8128 1.58071 11.6205 1.68609 12.4138C1.84895 13.6134 2.68241 14.4976 3.8416 14.7365C4.38287 14.8464 4.9433 14.9086 5.49416 14.9229C7.02217 14.9564 8.55498 14.9707 10.083 14.9516C10.8925 14.942 11.7116 14.8942 12.5115 14.7748C13.6659 14.6027 14.4611 13.9288 14.7772 12.8057C14.9353 12.237 14.988 11.63 15.0119 11.0422C15.0407 10.1006 15.0119 9.15914 15.0119 8.21285Z" fill="currentColor"/>
<path d="M12.5021 8.21256C12.4973 10.5448 10.6004 12.4279 8.2629 12.4231C5.92537 12.4183 4.0333 10.5257 4.0381 8.19344C4.04289 5.86117 5.93973 3.97814 8.27727 3.98292C10.6148 3.9877 12.5069 5.88028 12.5021 8.21256ZM8.27727 5.45971C6.7732 5.45493 5.52779 6.69753 5.523 8.19822C5.51821 9.6989 6.76362 10.9463 8.27247 10.9463C9.77654 10.9511 11.0267 9.70368 11.0267 8.203C11.0267 6.70709 9.78133 5.46449 8.27727 5.45971Z" fill="currentColor"/>
<path d="M12.6744 2.83154C13.2205 2.83154 13.6516 3.2569 13.6563 3.80173C13.6611 4.35135 13.2205 4.79582 12.6744 4.79582C12.1331 4.79582 11.6781 4.34179 11.6876 3.80173C11.6924 3.27123 12.1331 2.83632 12.6744 2.83154Z" fill="currentColor"/>
</svg>
