<?xml version="1.0" standalone="no"?>
<!DOCTYPE svg PUBLIC "-//W3C//DTD SVG 20010904//EN"
 "http://www.w3.org/TR/2001/REC-SVG-20010904/DTD/svg10.dtd">
<svg version="1.0" xmlns="http://www.w3.org/2000/svg"
 width="1000.000000pt" height="1000.000000pt" viewBox="0 0 1000.000000 1000.000000"
 preserveAspectRatio="xMidYMid meet">
<metadata>
Created by potrace 1.14, written by Peter Selinger 2001-2017
</metadata>
<g transform="translate(0.000000,1000.000000) scale(0.100000,-0.100000)"
fill="#000000" stroke="none">
<path d="M5183 8572 c-14 -9 -19 -50 -28 -227 -4 -66 -8 -136 -10 -155 -3 -34
-15 -231 -20 -335 -8 -153 -17 -291 -21 -296 -15 -25 106 -48 125 -25 6 7 13
55 16 107 2 52 7 139 11 194 4 55 7 108 6 119 -1 20 -5 20 295 1 53 -3 84 -1
89 6 12 20 14 88 2 95 -17 11 -80 16 -318 27 l-55 3 2 50 c1 44 12 247 16 299
2 18 9 20 72 18 93 -2 266 -12 292 -17 30 -6 52 14 57 51 6 53 -10 64 -95 68
-40 2 -110 6 -154 9 -203 14 -271 16 -282 8z"/>
<path d="M4672 8559 c-10 -4 -25 -21 -32 -38 -7 -17 -16 -31 -21 -31 -5 0 -9
-5 -9 -10 0 -6 -35 -73 -79 -148 -43 -75 -91 -159 -106 -187 -15 -27 -54 -96
-86 -152 -33 -56 -59 -107 -59 -112 0 -6 -4 -11 -8 -11 -10 0 -42 -65 -42 -86
0 -8 7 -28 15 -43 11 -22 20 -28 42 -26 77 7 191 17 213 20 14 1 54 6 90 9 36
4 82 9 103 12 35 5 37 3 38 -23 0 -15 2 -37 3 -48 2 -11 6 -52 10 -92 9 -81
19 -90 82 -79 29 6 61 36 50 47 -2 2 -7 38 -11 79 -4 41 -8 87 -10 103 -2 15
-3 27 -2 28 1 0 25 3 52 5 69 8 87 32 65 89 -10 26 -12 27 -70 22 -42 -4 -60
-2 -61 6 0 7 -2 19 -3 27 -2 8 -6 51 -10 95 -4 44 -9 94 -12 110 -2 17 -6 55
-8 85 -3 30 -7 78 -10 105 -8 69 -16 142 -22 194 -2 24 -7 48 -10 53 -6 10
-62 8 -92 -3z m4 -272 c1 -64 11 -181 20 -230 2 -15 7 -57 9 -93 3 -36 6 -68
6 -72 4 -23 -5 -30 -33 -30 -18 0 -55 -3 -83 -6 -27 -4 -72 -9 -100 -12 -27
-2 -65 -6 -82 -8 -18 -2 -33 -2 -33 0 0 9 66 129 77 141 6 7 15 23 19 36 4 12
9 24 13 27 3 3 17 27 31 53 14 27 30 56 35 65 6 10 32 56 58 105 27 48 52 87
55 87 4 0 8 -28 8 -63z"/>
<path d="M6055 8480 c-14 -16 -33 -79 -49 -161 -2 -13 -14 -62 -26 -109 -12
-47 -24 -92 -25 -100 -2 -8 -4 -15 -5 -15 -1 0 -3 -9 -5 -20 -2 -11 -25 -103
-50 -205 -26 -102 -48 -196 -50 -210 -3 -14 -13 -55 -23 -92 -15 -51 -16 -71
-8 -82 13 -17 82 -37 101 -30 10 4 28 45 24 56 0 2 5 17 11 33 7 17 14 41 16
55 4 21 9 43 19 80 0 3 12 50 24 105 13 55 25 103 27 106 2 4 21 3 41 -3 21
-5 57 -13 80 -18 57 -12 120 -46 148 -78 31 -36 43 -81 60 -222 28 -246 32
-253 113 -254 l47 -1 -1 35 c-1 31 -8 85 -19 160 -7 41 -17 123 -20 150 -2 24
-6 42 -26 122 -5 20 -21 51 -35 67 l-25 30 42 11 c122 33 193 133 193 271 0
52 -5 74 -26 110 -15 24 -36 52 -48 62 -61 51 -184 95 -427 151 -57 13 -63 13
-78 -4z m195 -145 c36 -9 76 -18 89 -21 68 -14 149 -82 152 -127 4 -47 1 -88
-7 -105 -4 -9 -8 -20 -8 -24 -2 -17 -63 -72 -94 -85 -47 -20 -93 -18 -192 6
-47 12 -92 23 -100 25 -17 3 -21 39 -8 74 4 12 10 33 12 45 8 35 13 57 36 149
18 69 25 86 39 83 9 -2 45 -11 81 -20z"/>
<path d="M3510 8341 c-29 -8 -52 -48 -41 -70 7 -13 49 -163 55 -196 1 -5 5
-16 9 -22 5 -7 6 -17 2 -22 -3 -5 -1 -12 4 -15 5 -4 13 -25 17 -49 9 -48 9
-47 17 -67 3 -8 20 -67 37 -130 17 -63 42 -155 56 -205 14 -49 27 -101 30
-114 3 -13 10 -34 16 -45 6 -12 10 -22 9 -24 -7 -7 12 -62 22 -63 17 -2 44 3
92 15 141 36 182 48 195 53 8 3 20 7 25 8 89 20 213 60 221 71 9 11 8 24 -1
50 -14 41 -32 56 -54 45 -15 -8 -108 -32 -123 -32 -4 0 -23 -6 -43 -15 -19 -8
-35 -12 -35 -9 0 2 -12 0 -27 -6 -16 -6 -58 -19 -95 -29 l-67 -17 -17 71 c-10
39 -19 73 -19 76 0 3 -6 21 -12 40 -22 72 -43 146 -47 170 -3 14 -5 25 -6 25
-1 0 -3 8 -6 18 -2 9 -6 25 -8 35 -3 9 -5 17 -6 17 -1 0 -3 7 -5 15 -2 8 -17
65 -34 125 -16 61 -39 146 -51 189 -32 121 -38 127 -110 107z"/>
<path d="M3059 8177 c-36 -18 -95 -45 -130 -61 -35 -16 -109 -51 -165 -78 -56
-26 -106 -48 -112 -48 -6 0 -16 -9 -22 -20 -12 -22 -7 -32 236 -555 51 -110
104 -226 143 -312 19 -41 41 -73 51 -76 9 -2 42 7 71 20 93 43 161 74 274 128
61 28 125 58 142 66 41 17 46 30 28 73 -25 60 -16 62 -303 -75 -67 -33 -130
-59 -138 -59 -9 0 -27 27 -45 68 -16 37 -50 108 -73 157 -32 67 -41 93 -32
101 6 6 70 37 141 70 190 86 210 98 213 122 2 12 -6 35 -18 52 -23 33 -21 33
-125 -16 -33 -15 -62 -29 -65 -29 -10 -3 -146 -66 -173 -81 -16 -9 -31 -14
-34 -11 -2 3 -36 72 -73 154 -62 133 -67 149 -52 158 9 5 100 49 202 97 109
50 186 93 188 102 5 24 -29 86 -47 85 -9 0 -46 -15 -82 -32z"/>
<path d="M7021 8197 c-6 -8 -27 -54 -46 -103 -20 -49 -42 -103 -50 -121 -8
-17 -15 -34 -15 -38 0 -4 -6 -21 -14 -38 -20 -44 -97 -230 -100 -242 -1 -5
-10 -27 -19 -49 -9 -21 -17 -40 -17 -41 0 -1 -7 -19 -15 -39 -8 -20 -15 -38
-16 -41 0 -2 -18 -45 -39 -95 -56 -130 -58 -146 -23 -163 45 -23 80 -28 90
-14 6 6 45 100 88 207 43 107 86 214 97 238 10 23 24 57 31 76 7 19 48 123 92
231 l79 197 -24 18 c-13 10 -28 16 -32 14 -3 -2 -9 0 -13 6 -9 14 -41 12 -54
-3z"/>
<path d="M7498 7983 c-8 -10 -61 -99 -117 -198 -56 -99 -106 -187 -111 -195
-5 -8 -19 -33 -31 -55 -12 -22 -28 -48 -37 -57 -8 -10 -12 -18 -8 -18 4 0 -2
-13 -13 -29 -12 -16 -21 -34 -21 -40 0 -6 -4 -11 -8 -11 -5 0 -14 -16 -22 -35
-8 -19 -16 -35 -19 -35 -4 0 -12 -15 -20 -32 -8 -18 -17 -35 -20 -38 -3 -3
-21 -33 -39 -67 -23 -44 -30 -67 -24 -78 8 -16 226 -145 243 -145 5 0 9 -4 9
-10 0 -5 4 -10 8 -10 5 0 56 -27 113 -60 57 -33 112 -60 122 -60 11 0 25 15
37 43 18 40 18 43 2 54 -9 7 -22 17 -29 23 -7 5 -15 10 -18 10 -3 0 -50 25
-103 56 -53 31 -122 70 -152 86 -79 43 -82 46 -66 71 8 12 48 84 90 159 l77
137 50 -30 c27 -16 54 -29 59 -29 6 0 10 -4 10 -10 0 -5 4 -10 8 -10 5 0 56
-27 113 -60 57 -33 109 -60 116 -60 16 0 53 54 53 77 0 14 -41 42 -157 109
-86 49 -161 91 -167 93 -25 9 -22 27 12 90 20 36 38 68 41 71 7 6 18 25 56 98
15 29 30 52 34 52 4 0 17 -7 29 -16 12 -8 22 -12 22 -8 0 4 8 0 18 -8 9 -8 49
-32 87 -53 39 -21 87 -49 107 -62 21 -12 42 -23 47 -23 5 0 11 -3 13 -7 2 -5
18 -16 37 -26 27 -14 36 -15 49 -5 13 11 42 67 42 82 0 4 -119 76 -126 76 -2
0 -21 11 -42 23 -20 13 -59 37 -87 52 -151 86 -241 135 -246 135 -3 0 -13 -8
-21 -17z"/>
<path d="M2284 7786 l-38 -34 17 -58 c10 -33 19 -67 22 -78 2 -10 13 -48 25
-85 11 -36 38 -129 61 -206 22 -77 50 -171 61 -210 30 -104 58 -186 75 -223 8
-19 13 -35 11 -38 -3 -2 -20 10 -39 27 -27 24 -322 239 -425 309 -76 52 -150
104 -154 110 -3 3 -37 27 -76 54 -69 46 -72 47 -100 33 -31 -16 -80 -64 -73
-71 7 -8 76 -61 95 -74 24 -16 283 -201 315 -225 13 -9 62 -44 109 -77 47 -33
103 -73 125 -88 22 -16 86 -61 142 -101 l102 -72 33 17 c41 20 88 64 88 81 0
7 -18 74 -41 150 -22 76 -42 145 -44 153 -2 8 -4 15 -5 15 -1 0 -3 7 -5 17 -5
25 -55 200 -66 228 -5 14 -11 34 -13 45 -12 59 -119 412 -128 423 -16 19 -33
14 -74 -22z"/>
<path d="M8220 7474 c-24 -30 -56 -67 -70 -83 -14 -15 -50 -57 -80 -91 -30
-35 -59 -68 -65 -74 -5 -7 -39 -45 -75 -86 -36 -41 -69 -80 -75 -86 -5 -6 -30
-35 -54 -64 -25 -29 -50 -58 -55 -64 -74 -79 -136 -157 -136 -172 1 -27 33
-62 64 -70 29 -7 33 -4 136 117 25 29 50 57 55 63 6 6 39 45 75 86 116 133
111 128 195 225 104 121 105 122 100 99 -2 -12 -6 -39 -10 -60 -4 -22 -8 -52
-10 -69 -1 -16 -6 -49 -9 -72 -9 -58 -15 -99 -21 -158 -3 -27 -8 -63 -11 -80
-3 -16 -7 -46 -9 -65 -3 -36 -13 -115 -21 -160 -2 -14 -6 -50 -10 -80 -3 -30
-8 -64 -10 -75 -2 -11 -7 -50 -10 -86 -6 -59 -4 -69 16 -92 12 -14 36 -31 52
-38 28 -11 31 -10 76 41 26 30 57 64 69 77 11 13 36 43 55 65 18 23 42 51 53
63 18 19 101 114 165 189 14 16 36 42 50 57 14 15 45 51 70 80 25 29 71 83
102 119 32 36 58 70 58 76 0 21 -39 62 -69 72 -26 9 -32 8 -45 -11 -8 -12 -32
-41 -53 -64 -21 -23 -52 -59 -69 -80 -18 -21 -42 -49 -55 -64 -13 -14 -46 -51
-74 -83 -27 -33 -61 -71 -75 -86 -39 -43 -71 -80 -127 -147 -28 -34 -53 -59
-56 -57 -3 3 -1 20 3 37 9 31 13 57 25 157 3 25 7 59 10 75 2 17 9 66 14 110
6 44 13 96 16 115 2 19 9 73 15 120 14 113 20 152 24 175 7 35 19 149 18 168
-1 28 -71 87 -102 86 -8 0 -35 -25 -60 -55z"/>
<path d="M1199 6881 c-45 -46 -48 -52 -38 -78 10 -27 54 -116 325 -650 73
-145 130 -263 126 -263 -4 0 -41 6 -82 14 -195 38 -248 46 -305 50 -27 1 -64
-3 -82 -11 -18 -7 -34 -13 -35 -13 -2 0 -2 25 -1 55 2 72 -20 126 -74 181 -55
57 -122 87 -193 87 -103 0 -190 -68 -290 -227 -30 -48 -72 -113 -92 -144 -21
-32 -38 -65 -38 -74 0 -23 25 -41 275 -198 121 -76 225 -143 232 -149 7 -6 15
-11 18 -11 3 0 36 -19 73 -43 281 -182 264 -174 296 -142 38 38 43 71 16 101
-13 13 -25 22 -28 19 -2 -2 -19 7 -37 20 -17 14 -37 25 -43 25 -6 0 -12 3 -14
8 -4 9 -196 132 -208 132 -38 0 14 110 91 192 58 63 155 79 257 43 7 -2 34 -7
60 -11 26 -3 50 -8 54 -11 5 -2 26 -6 48 -9 23 -3 51 -9 64 -13 32 -13 95 30
96 66 0 7 16 29 35 50 38 40 40 70 8 105 -8 9 -16 22 -17 30 -2 13 -20 49 -57
115 -24 43 -24 49 4 77 12 13 78 82 146 155 68 72 129 131 136 131 6 0 25 -6
41 -14 16 -8 47 -21 69 -31 22 -9 57 -25 78 -36 22 -10 46 -19 54 -19 21 0 94
77 88 93 -5 11 -47 31 -270 127 -22 10 -71 32 -110 50 -38 17 -74 33 -80 34
-5 1 -30 12 -55 23 -39 18 -356 156 -459 200 l-33 14 -49 -50z m371 -231 c230
-102 231 -102 228 -111 -7 -18 -232 -247 -239 -243 -5 2 -33 53 -63 112 -117
230 -163 318 -181 346 l-19 29 49 -28 c28 -15 129 -62 225 -105z m-655 -562
c67 -36 101 -101 92 -181 -4 -45 -36 -120 -57 -137 -4 -3 -21 -30 -40 -61
l-33 -56 -145 91 c-79 50 -146 96 -149 102 -4 10 50 110 67 124 3 3 16 22 29
43 58 95 144 122 236 75z"/>
<path d="M9084 6605 c-49 -36 -100 -73 -113 -82 -13 -10 -52 -38 -86 -63 -35
-25 -128 -92 -207 -150 -338 -246 -330 -240 -317 -256 6 -8 8 -14 5 -14 -4 0
8 -20 26 -44 18 -24 41 -55 50 -67 9 -13 35 -49 58 -79 22 -30 48 -66 58 -80
32 -45 117 -121 159 -141 23 -11 44 -19 46 -17 2 2 11 -3 19 -10 27 -22 157
-27 223 -7 171 49 372 203 448 343 15 28 31 62 34 74 10 42 11 170 1 202 -5
17 -11 38 -13 48 -6 28 -75 149 -95 168 -3 3 -39 52 -80 110 -76 107 -96 129
-116 130 -7 0 -52 -29 -100 -65z m134 -147 c128 -174 151 -225 148 -325 -3
-82 -40 -155 -120 -234 -62 -63 -167 -133 -236 -158 -123 -45 -238 -21 -327
66 -80 79 -169 209 -155 226 6 7 64 50 129 97 65 46 120 87 123 90 3 4 28 21
55 40 28 19 52 36 55 40 3 3 37 28 75 55 39 27 102 73 140 102 39 29 71 53 72
53 1 0 20 -24 41 -52z"/>
<path d="M9589 5676 c-52 -18 -105 -53 -130 -84 -48 -62 -53 -86 -53 -292 -1
-177 -3 -198 -21 -228 -56 -92 -192 -105 -266 -25 -56 59 -83 141 -88 258 -1
44 -4 81 -5 82 -1 2 -21 5 -44 7 -55 5 -70 -15 -70 -95 0 -164 106 -367 216
-415 20 -8 44 -19 52 -24 24 -12 119 -3 170 16 86 32 142 84 174 163 15 38 18
68 16 166 -5 265 -5 253 16 282 26 36 94 71 131 67 15 -1 36 -2 47 -3 29 -2
103 -82 124 -136 10 -28 20 -79 21 -114 2 -68 7 -85 21 -76 5 3 11 1 15 -5 4
-6 12 -7 18 -3 7 4 21 7 32 8 32 0 41 44 27 128 -25 143 -113 273 -218 317
-52 23 -132 25 -185 6z"/>
<path d="M272 5527 c-10 -11 -161 -381 -173 -422 -1 -5 -24 -64 -51 -129 -26
-66 -46 -128 -43 -137 7 -21 53 -36 94 -30 8 1 20 25 27 56 2 10 46 117 69
170 7 17 15 35 17 42 3 10 78 -15 213 -72 11 -5 22 -9 25 -10 12 -4 48 -19 90
-38 24 -11 49 -20 55 -22 5 -1 24 -7 40 -14 415 -166 435 -173 451 -160 30 24
49 93 31 107 -7 6 -77 35 -157 67 -80 31 -156 61 -170 67 -29 12 -11 5 -260
103 -240 94 -260 103 -260 113 0 7 12 40 55 147 4 11 9 25 11 32 1 7 9 27 18
44 22 43 20 56 -8 74 -32 21 -63 26 -74 12z"/>
<path d="M4531 5228 c-25 -4 -49 -9 -54 -11 -8 -2 97 -87 108 -87 5 0 51 -38
95 -80 15 -14 33 -42 40 -63 9 -28 24 -47 57 -68 25 -15 51 -30 57 -32 6 -2
-5 -20 -24 -39 -20 -19 -36 -44 -37 -56 -2 -20 2 -21 90 -17 128 5 331 16 396
20 53 3 55 2 105 -46 l51 -49 58 5 c32 4 68 8 80 11 12 2 39 7 60 10 58 9 86
18 88 28 1 6 -60 47 -134 92 -146 88 -128 83 -257 70 -138 -14 -240 -17 -276
-7 -49 13 -123 84 -268 258 -22 27 -84 53 -128 54 -4 0 -20 4 -35 8 -16 4 -48
4 -72 -1z"/>
<path d="M2845 5189 c-27 -23 -61 -51 -75 -62 -14 -12 -45 -38 -70 -57 -25
-19 -47 -37 -50 -40 -3 -3 -25 -21 -50 -40 -54 -42 -78 -61 -94 -75 -6 -6 -24
-21 -41 -33 -16 -13 -43 -34 -60 -47 -143 -116 -146 -120 -194 -210 -52 -98
-116 -217 -151 -280 -55 -99 -234 -315 -261 -315 -7 0 -123 -66 -144 -82 -5
-5 -46 -35 -90 -68 -44 -32 -84 -63 -90 -67 -5 -5 -32 -24 -60 -43 -27 -19
-62 -44 -77 -56 -21 -17 -37 -21 -80 -18 -117 9 -499 16 -514 10 -13 -5 -5
-18 38 -68 29 -35 62 -72 73 -84 11 -12 39 -42 63 -68 23 -25 48 -46 55 -46 6
0 46 10 87 21 41 11 82 22 90 24 8 2 40 11 70 20 30 9 63 18 73 20 10 2 27 7
37 10 10 3 29 8 42 11 30 7 40 10 58 17 8 4 24 8 35 10 11 2 32 7 47 11 20 6
38 2 70 -16 24 -12 45 -25 48 -28 3 -3 19 -12 35 -20 17 -8 32 -17 35 -20 3
-3 86 -56 184 -118 l179 -113 181 6 c219 7 402 13 641 20 99 2 261 7 360 11
99 3 238 7 308 9 l129 3 78 -82 c42 -44 111 -116 151 -159 l74 -77 70 -6 c39
-3 73 -8 76 -10 3 -2 41 -6 84 -10 44 -3 87 -7 96 -9 21 -4 102 -14 164 -20
28 -2 67 -7 88 -10 24 -4 72 2 130 15 51 12 99 24 107 25 8 2 62 15 120 29
171 42 315 76 336 80 10 2 37 9 59 14 22 6 56 13 75 16 19 3 46 8 60 11 46 10
85 17 115 21 17 2 48 6 70 9 52 8 80 12 135 20 25 3 56 8 70 10 126 21 133 20
290 -59 137 -70 221 -100 430 -157 74 -20 128 -47 236 -117 10 -6 34 -20 52
-29 17 -9 32 -20 32 -25 0 -4 5 -8 11 -8 7 0 39 -17 73 -38 52 -32 102 -51
176 -67 8 -2 51 -13 95 -24 44 -12 89 -23 100 -25 11 -2 67 -13 125 -24 58
-11 130 -24 160 -27 30 -4 64 -8 75 -10 90 -14 114 -17 145 -20 19 -2 55 -6
80 -10 53 -8 74 -10 205 -21 156 -12 213 -10 310 6 92 16 322 19 420 6 28 -3
68 -9 90 -12 22 -3 99 -21 170 -39 l130 -34 -40 35 c-22 19 -44 38 -50 42 -5
4 -71 55 -145 112 -74 57 -139 108 -145 112 -5 5 -55 43 -110 85 -55 42 -102
79 -105 82 -3 3 -32 26 -65 50 -33 25 -61 48 -63 53 -2 4 -8 8 -13 8 -5 0 -19
9 -31 19 -27 23 -213 168 -253 196 -53 39 -140 110 -143 117 -2 4 -8 8 -14 8
-16 0 -156 119 -224 191 -165 173 -326 346 -361 389 -15 19 -36 44 -45 54 -10
11 -18 23 -18 27 0 4 -6 14 -13 21 -7 7 -28 33 -46 58 -55 73 -209 220 -230
220 -11 0 -22 4 -25 9 -5 7 -156 48 -246 66 -8 2 -46 11 -85 20 -38 9 -79 17
-90 19 -12 1 -25 5 -30 7 -17 9 -28 5 -150 -60 -238 -127 -361 -210 -453 -305
-62 -64 -223 -216 -288 -273 -11 -10 -49 -43 -84 -73 -35 -30 -82 -71 -104
-91 -23 -20 -88 -73 -146 -118 -58 -45 -112 -88 -120 -94 -45 -36 -134 -89
-168 -101 -35 -13 -306 -14 -654 -3 -55 2 -94 16 -47 18 13 0 33 3 44 5 28 6
144 25 183 29 18 2 41 6 50 9 9 3 34 8 56 12 43 6 60 10 96 18 14 3 36 8 50
10 51 8 168 37 250 62 101 30 158 61 204 112 80 86 116 127 116 134 0 7 -75
105 -99 129 -14 13 -76 88 -91 108 -9 13 -99 71 -109 71 -6 0 -11 3 -11 8 0 4
-14 13 -32 21 -43 19 -68 40 -175 148 -51 51 -97 93 -103 93 -9 0 -99 -33
-280 -102 -93 -36 -114 -46 -142 -73 -15 -14 -31 -25 -37 -25 -5 0 -11 -4 -13
-8 -3 -8 -122 -104 -183 -147 -16 -11 -34 -26 -41 -32 -7 -7 -17 -13 -22 -13
-6 0 -12 -4 -14 -8 -2 -6 -164 -116 -328 -222 -198 -128 -210 -135 -260 -143
-19 -4 -51 -9 -70 -13 -19 -3 -48 -7 -65 -9 -82 -9 -141 -17 -147 -21 -4 -2
-10 0 -13 6 -4 6 -3 10 2 8 4 -1 25 6 47 15 21 9 40 17 43 17 10 0 186 88 262
132 46 26 86 48 88 48 15 0 163 126 320 274 l84 79 -209 138 -208 138 -54 88
c-40 67 -241 345 -388 538 -4 6 -21 29 -37 52 -17 23 -39 47 -50 52 -11 6 -33
19 -50 29 -16 9 -52 31 -80 46 -27 16 -57 35 -65 42 -35 29 -63 25 -115 -17z"/>
<path d="M4005 4678 c-9 -40 -19 -81 -22 -90 -3 -15 2 -18 32 -18 l37 0 -7 63
c-4 34 -8 72 -9 84 -4 45 -14 32 -31 -39z"/>
<path d="M3760 4733 c0 -6 16 -48 37 -92 27 -62 42 -83 60 -87 13 -4 26 -4 29
-1 7 7 -58 107 -68 107 -5 0 -8 7 -8 15 0 8 -3 15 -8 15 -4 0 -15 12 -24 28
-10 15 -18 22 -18 15z"/>
<path d="M4233 4645 c-7 -8 -13 -19 -13 -25 0 -5 -4 -10 -8 -10 -4 0 -15 -15
-23 -33 l-15 -33 38 0 39 -1 -2 59 c-1 32 -2 58 -3 58 -1 -1 -7 -7 -13 -15z"/>
<path d="M4420 4553 c-68 -18 -80 -28 -54 -48 30 -23 49 -18 83 20 27 31 38
47 29 44 -2 0 -28 -7 -58 -16z"/>
<path d="M3930 4482 c-64 -17 -65 -18 -79 -61 -17 -54 -12 -64 59 -102 30 -17
85 -48 122 -70 36 -21 69 -39 72 -39 3 0 35 -18 71 -40 36 -22 70 -40 76 -40
6 0 23 8 37 18 15 11 57 36 95 56 46 26 67 44 67 57 0 10 -3 19 -8 19 -4 0
-16 16 -26 35 -11 19 -23 35 -28 35 -4 0 -8 6 -8 13 0 8 -22 37 -49 66 -54 58
-47 56 -231 65 -81 4 -120 1 -170 -12z"/>
<path d="M4456 4410 c-11 -4 -6 -11 17 -26 l33 -21 44 23 c25 13 41 24 35 24
-33 5 -117 5 -129 0z"/>
<path d="M1478 3504 c-2 -1 -33 -5 -68 -7 -36 -3 -78 -10 -95 -17 -16 -6 -32
-12 -35 -12 -18 -2 -123 -48 -119 -52 2 -2 29 -6 59 -10 99 -11 165 -27 192
-47 15 -10 30 -19 34 -19 4 0 26 -16 50 -35 23 -19 46 -35 50 -35 5 0 17 -9
29 -20 11 -11 58 -49 105 -86 47 -37 130 -113 185 -170 l100 -102 70 -2 c132
-3 226 -8 231 -13 3 -3 -30 -19 -73 -37 -139 -58 -378 -149 -381 -145 -2 2 -5
61 -6 130 -3 141 -4 144 -71 146 -22 1 -56 2 -75 4 -19 2 -42 3 -51 4 -13 1
-20 20 -30 84 -7 45 -13 85 -14 89 -1 16 -22 26 -65 32 -25 3 -58 9 -75 12
-16 4 -38 7 -47 8 -10 1 -28 12 -41 24 -13 12 -28 22 -34 22 -6 0 -13 4 -15 8
-1 5 -34 30 -72 56 -37 26 -65 43 -61 36 3 -6 31 -48 62 -93 30 -45 82 -137
115 -203 59 -120 61 -123 197 -255 111 -107 155 -143 223 -180 76 -41 91 -45
139 -43 113 7 287 7 359 0 78 -7 89 -9 130 -19 14 -4 36 -9 50 -11 14 -3 50
-12 80 -21 30 -9 62 -17 70 -19 8 -2 42 -11 75 -19 33 -8 94 -18 135 -22 87
-7 154 -13 225 -20 28 -3 80 -7 117 -10 53 -4 193 -43 323 -89 6 -2 13 -4 18
-5 27 -4 123 -63 183 -113 77 -63 81 -65 229 -73 87 -5 140 -9 255 -21 54 -5
75 -8 135 -18 17 -3 73 -12 125 -21 52 -8 106 -17 120 -20 14 -3 39 -7 55 -9
37 -5 53 -11 188 -75 59 -28 109 -51 111 -51 10 0 192 -104 194 -111 2 -5 8
-9 13 -9 5 0 71 -46 147 -103 83 -62 155 -108 182 -117 25 -7 50 -16 55 -19 6
-3 15 -6 20 -7 6 -1 83 -25 171 -53 159 -50 188 -56 374 -66 52 -3 125 -7 163
-10 37 -3 67 -3 67 -1 0 5 -265 67 -345 81 -42 7 -160 37 -171 43 -9 5 4 25
37 61 97 106 130 144 127 146 -2 2 -28 6 -58 9 -30 4 -66 9 -80 11 -14 2 -50
7 -80 10 -30 3 -66 8 -80 10 -14 3 -45 7 -70 10 -25 3 -63 8 -85 11 -22 3 -58
7 -80 9 -22 2 -41 5 -42 6 -2 1 -12 3 -23 4 -11 1 -24 3 -30 4 -5 0 18 55 50
121 33 66 60 122 60 124 0 7 -53 -10 -87 -27 -17 -9 -33 -13 -36 -10 -4 3 -12
1 -19 -5 -7 -5 -56 -26 -108 -46 -52 -20 -103 -40 -112 -46 -10 -6 -18 -6 -18
-2 0 11 62 106 72 110 5 2 8 8 8 13 0 5 16 32 36 59 20 28 34 53 32 55 -2 3
-157 7 -344 9 -186 3 -346 5 -354 6 -8 1 19 13 60 27 236 80 392 141 330 128
-43 -8 -93 -15 -142 -20 -25 -2 -59 -6 -75 -9 -15 -3 -57 -8 -93 -11 -36 -4
-81 -9 -100 -12 -19 -2 -60 -6 -90 -9 -30 -3 -60 -7 -67 -9 -25 -9 -21 13 5
26 15 8 29 16 32 19 10 10 95 65 123 79 15 7 27 17 27 22 0 5 7 9 15 9 8 0 15
4 15 10 0 5 11 12 25 16 24 6 35 24 15 24 -6 0 -65 -14 -133 -30 -67 -17 -134
-33 -149 -35 -15 -3 -40 -10 -55 -16 -15 -6 -29 -10 -31 -9 -1 1 -15 -1 -30
-4 -43 -10 -75 -17 -101 -22 -14 -3 -29 -8 -34 -11 -16 -10 -2 19 52 107 28
45 51 84 51 87 0 5 -47 -28 -196 -139 -51 -37 -96 -68 -102 -68 -6 0 -25 19
-44 41 -32 40 -125 143 -181 202 -16 16 -32 25 -37 21 -4 -5 -18 -40 -30 -79
-13 -38 -26 -74 -30 -78 -4 -5 -56 64 -115 152 -59 89 -111 161 -115 161 -4 0
-30 -17 -57 -37 -124 -93 -209 -159 -215 -168 -13 -18 -18 2 -24 81 -6 82 -10
123 -12 137 -2 7 -66 -31 -102 -60 -43 -36 -214 -152 -217 -149 -2 2 23 49 57
104 61 102 70 125 48 117 -7 -3 -38 -7 -68 -9 -30 -3 -71 -7 -90 -10 -19 -2
-60 -7 -90 -11 -30 -3 -71 -8 -90 -10 -19 -3 -57 -7 -85 -10 -27 -3 -66 -7
-85 -10 -125 -16 -143 -17 -129 -3 8 7 64 39 126 70 96 49 119 57 169 58 99 2
114 0 344 -25 25 -2 68 -7 95 -10 28 -3 59 -7 70 -9 11 -2 63 -7 115 -10 87
-6 108 -4 245 29 159 37 185 41 185 25 0 -5 4 -10 9 -10 5 0 48 -28 96 -62 47
-35 94 -67 103 -73 9 -5 19 -12 22 -15 3 -3 29 -23 59 -44 46 -33 62 -38 107
-38 28 0 57 2 62 6 6 3 13 2 17 -4 4 -6 11 -7 17 -4 6 4 107 8 225 9 l214 3
67 -29 c37 -17 76 -34 87 -39 40 -19 111 -39 160 -46 28 -3 59 -8 70 -11 31
-6 101 -13 274 -28 36 -3 58 -10 66 -22 7 -10 35 -46 61 -79 27 -34 58 -74 69
-89 27 -38 53 -45 215 -60 59 -6 105 -16 115 -26 5 -5 6 -9 3 -9 -7 0 7 -66
33 -152 21 -69 34 -80 99 -92 86 -15 172 -40 215 -64 40 -21 56 -38 77 -80 15
-30 30 -75 33 -100 12 -91 11 -89 52 -87 38 3 137 11 243 21 30 3 78 7 105 9
28 2 73 6 100 9 28 3 82 8 120 11 39 3 90 8 115 10 25 3 77 7 115 10 128 10
145 15 237 77 81 54 155 94 183 98 6 1 17 6 26 10 14 8 37 12 134 25 17 2 32
4 35 5 3 2 8 2 12 1 4 0 29 4 56 9 27 5 71 12 98 15 27 4 58 9 69 10 11 2 36
6 55 9 19 3 46 8 60 11 14 3 45 8 70 11 25 2 52 6 60 9 8 2 33 7 55 10 23 3
52 7 65 10 22 4 49 9 127 20 15 2 39 6 53 9 13 3 42 8 65 12 135 20 126 16
265 127 8 7 53 41 100 77 47 35 96 75 110 87 14 13 28 23 31 23 4 0 10 7 13
16 5 14 -3 15 -66 9 -40 -4 -82 -9 -92 -11 -11 -2 -42 -6 -70 -9 -60 -6 -93
-10 -161 -22 -60 -10 -304 -10 -395 0 -36 4 -92 10 -125 12 -33 3 -71 7 -85
10 -14 2 -59 7 -100 10 -41 4 -93 9 -115 11 -22 2 -67 6 -100 9 -33 3 -80 7
-105 10 -25 2 -69 7 -99 10 -127 14 -267 54 -438 128 -67 30 -357 175 -413
207 -154 90 -507 266 -550 274 -73 14 -149 20 -255 19 -170 0 -288 -9 -380
-30 -16 -4 -37 -7 -45 -8 -8 -1 -24 -4 -35 -8 -11 -3 -31 -8 -45 -11 -14 -2
-65 -14 -115 -26 -49 -12 -97 -23 -105 -25 -8 -2 -46 -11 -85 -20 -38 -9 -77
-18 -85 -20 -8 -2 -67 -17 -130 -32 -109 -27 -125 -29 -315 -27 -185 2 -204 3
-255 25 -93 40 -295 142 -298 151 -2 4 -8 6 -13 2 -5 -3 -9 0 -9 6 0 6 -10 15
-22 20 -13 6 -43 26 -68 44 -25 19 -50 35 -57 35 -6 1 -13 5 -15 11 -1 5 -93
34 -202 65 -180 50 -207 55 -265 49 -37 -3 -88 -7 -116 -10 -115 -9 -186 -18
-290 -39 -11 -2 -54 -14 -95 -25 -41 -12 -87 -23 -101 -25 -15 -1 -32 -6 -39
-10 -6 -4 -78 -9 -158 -11 -154 -4 -161 -3 -287 51 -16 7 -59 25 -94 39 -61
25 -96 47 -151 96 -86 77 -231 166 -295 180 -19 4 -35 6 -37 4z"/>
</g>
</svg>
